<?xml version="1.0" encoding="utf-8"?>
<!-- Generator: Adobe Illustrator 16.0.0, SVG Export Plug-In . SVG Version: 6.00 Build 0)  -->
<!DOCTYPE svg PUBLIC "-//W3C//DTD SVG 1.1//EN" "http://www.w3.org/Graphics/SVG/1.1/DTD/svg11.dtd">
<svg version="1.1" id="图层_1" xmlns="http://www.w3.org/2000/svg" xmlns:xlink="http://www.w3.org/1999/xlink" x="0px" y="0px"
	 width="380px" height="135px" viewBox="0 0 380 135" enable-background="new 0 0 380 135" xml:space="preserve">
<path fill="#C7161E" d="M195.42,124.651c0.453-0.007,0.834-0.136,1.14-0.38c0.304-0.237,0.469-0.549,0.478-0.922
	c-0.009-0.394-0.174-0.712-0.478-0.962c-0.306-0.245-0.687-0.374-1.14-0.38h-14.506l14.245-16.107
	c0.183-0.229,0.304-0.48,0.356-0.759c0.061-0.278,0.044-0.542-0.053-0.8c-0.104-0.251-0.287-0.461-0.557-0.624
	c-0.27-0.169-0.635-0.25-1.104-0.257h-15.757c-0.479,0.007-0.862,0.121-1.157,0.352c-0.296,0.224-0.453,0.515-0.461,0.868
	c0.008,0.414,0.165,0.746,0.461,0.996c0.295,0.252,0.678,0.38,1.157,0.387h12.731l-13.984,15.862
	c-0.208,0.224-0.365,0.455-0.47,0.685c-0.105,0.23-0.156,0.455-0.156,0.658c0.008,0.413,0.182,0.745,0.522,0.996
	c0.347,0.251,0.834,0.38,1.46,0.387H195.42z M353,103.744c-0.234,0.021-0.451,0.082-0.651,0.178c-0.2,0.102-0.366,0.229-0.496,0.393
	h0.052c-0.104,0.142-0.19,0.298-0.252,0.467c-0.061,0.164-0.087,0.319-0.061,0.468c0.096,0.414,0.313,0.72,0.67,0.924
	c0.348,0.202,0.757,0.271,1.209,0.216c1.052-0.122,2.078-0.225,3.096-0.298c1.018-0.068,1.982-0.109,2.904-0.109
	c0.426,0,0.87,0.014,1.331,0.034c0.461,0.028,0.903,0.067,1.33,0.129c0.687,0.109,1.296,0.285,1.835,0.543
	c0.539,0.257,0.974,0.596,1.288,1.03c0.312,0.434,0.469,0.962,0.478,1.6v2.277c-0.339,0-0.679-0.006-1.026-0.021
	c-0.34-0.014-0.695-0.02-1.061-0.02c-0.688,0-1.393,0.006-2.105,0.026c-0.722,0.021-1.408,0.055-2.069,0.096
	c-0.53,0.04-1.078,0.088-1.652,0.148c-0.574,0.062-1.131,0.136-1.687,0.218c-0.966,0.154-1.837,0.434-2.593,0.832
	c-0.756,0.401-1.408,0.89-1.93,1.466c-0.531,0.575-0.939,1.206-1.218,1.891s-0.417,1.39-0.417,2.115
	c0,0.224,0.017,0.447,0.043,0.664c0.025,0.225,0.061,0.435,0.113,0.638c0.183,0.739,0.539,1.457,1.061,2.142
	c0.531,0.692,1.235,1.309,2.122,1.845c0.661,0.379,1.4,0.644,2.218,0.8c0.817,0.148,1.66,0.223,2.53,0.217
	c1.166-0.007,2.331-0.108,3.514-0.299c1.184-0.196,2.287-0.447,3.321-0.759l0.783-0.244c0,0.142,0.035,0.285,0.113,0.413
	c0.069,0.136,0.174,0.258,0.305,0.359c0.157,0.122,0.339,0.21,0.539,0.271c0.209,0.061,0.427,0.095,0.661,0.095
	c0.504-0.007,0.912-0.129,1.234-0.359c0.313-0.23,0.479-0.528,0.487-0.901l0.052-13.91c-0.008-1.186-0.287-2.176-0.826-2.97
	c-0.548-0.793-1.296-1.416-2.261-1.871c-0.957-0.453-2.07-0.765-3.331-0.936c-0.469-0.08-0.983-0.142-1.539-0.183
	c-0.548-0.041-1.113-0.061-1.696-0.061c-1.052,0.007-2.121,0.054-3.209,0.148C355.122,103.534,354.053,103.637,353,103.744
	 M365.68,114.238v6.184l-0.417,0.161c-0.2,0.082-0.427,0.156-0.661,0.231c-0.244,0.074-0.548,0.155-0.905,0.257
	c-0.6,0.177-1.217,0.339-1.869,0.488c-0.643,0.15-1.287,0.265-1.931,0.353s-1.252,0.137-1.835,0.137c-0.521,0-1.018-0.049-1.47-0.15
	c-0.46-0.095-0.878-0.237-1.243-0.42c-0.679-0.434-1.183-0.928-1.522-1.479c-0.339-0.542-0.513-1.098-0.513-1.653
	c0.009-0.576,0.147-1.125,0.443-1.633c0.286-0.517,0.688-0.956,1.2-1.316c0.522-0.359,1.113-0.596,1.801-0.711
	c0.687-0.109,1.417-0.197,2.191-0.258c0.782-0.068,1.582-0.115,2.4-0.149c0.809-0.026,1.608-0.041,2.399-0.041H365.68z
	 M313.657,123.105c0.018,0.352,0.184,0.651,0.505,0.888c0.321,0.237,0.704,0.366,1.165,0.373c0.505-0.007,0.931-0.136,1.262-0.373
	c0.329-0.236,0.504-0.536,0.513-0.888l-0.052-13.015c-0.01-1.254-0.191-2.306-0.549-3.153c-0.355-0.84-0.86-1.518-1.495-2.013
	c-0.636-0.495-1.365-0.854-2.209-1.071c-0.836-0.21-1.73-0.319-2.688-0.313c-0.974,0.008-1.983,0.115-3.052,0.313
	c-1.063,0.204-2.088,0.448-3.079,0.732c-1,0.284-1.87,0.563-2.635,0.826c-0.636-0.684-1.392-1.166-2.271-1.457
	c-0.878-0.284-1.843-0.421-2.896-0.414c-0.81,0.008-1.644,0.082-2.514,0.237c-0.86,0.15-1.713,0.339-2.539,0.57
	c-0.835,0.229-1.601,0.461-2.305,0.698v-0.244c-0.017-0.373-0.183-0.686-0.505-0.93c-0.321-0.236-0.704-0.365-1.164-0.371
	c-0.531,0.006-0.957,0.135-1.279,0.371c-0.321,0.244-0.486,0.557-0.495,0.93v18.303c0.009,0.352,0.174,0.651,0.486,0.888
	c0.305,0.237,0.704,0.366,1.184,0.373c0.504-0.007,0.931-0.136,1.261-0.373c0.33-0.236,0.505-0.536,0.513-0.888v-15.13
	c0,0,0-0.008,0.009-0.021c0-0.013,0.018-0.02,0.043-0.02c0.436-0.176,0.948-0.366,1.548-0.563c0.593-0.202,1.219-0.393,1.888-0.568
	c0.67-0.184,1.34-0.326,2.001-0.44c0.669-0.116,1.286-0.17,1.869-0.177c0.6-0.007,1.14,0.101,1.626,0.332
	c0.487,0.23,0.879,0.637,1.165,1.206c0.288,0.57,0.436,1.356,0.443,2.367v13.015c0.01,0.352,0.174,0.651,0.487,0.888
	c0.305,0.237,0.705,0.366,1.183,0.373c0.504-0.007,0.932-0.136,1.262-0.373c0.33-0.236,0.505-0.536,0.513-0.888l-0.052-13.015
	c0-0.429-0.026-0.827-0.07-1.2c-0.052-0.373-0.113-0.733-0.191-1.078c0.661-0.224,1.427-0.461,2.297-0.712
	c0.878-0.251,1.773-0.461,2.695-0.637c0.922-0.178,1.774-0.271,2.574-0.278c0.652-0.007,1.244,0.101,1.774,0.332
	c0.539,0.23,0.965,0.637,1.286,1.206c0.313,0.57,0.479,1.356,0.487,2.367V123.105z M246.816,120.137
	c-0.557,0.189-1.209,0.386-1.957,0.609c-0.748,0.218-1.547,0.42-2.391,0.617c-0.854,0.203-1.696,0.359-2.541,0.488
	c-0.852,0.129-1.651,0.188-2.399,0.197c-0.757,0.006-1.452-0.109-2.078-0.347c-0.626-0.236-1.131-0.644-1.513-1.22
	c-0.374-0.576-0.575-1.37-0.583-2.38l-0.054-13.015c-0.008-0.354-0.174-0.651-0.478-0.889s-0.687-0.366-1.139-0.373
	c-0.53,0.007-0.957,0.136-1.279,0.373c-0.321,0.237-0.485,0.535-0.495,0.889v13.015c0.01,1.267,0.209,2.325,0.6,3.173
	c0.4,0.854,0.949,1.525,1.645,2.026c0.696,0.502,1.504,0.86,2.426,1.079c0.914,0.21,1.896,0.317,2.948,0.312
	c1.017-0.021,2.078-0.116,3.183-0.286c1.104-0.176,2.184-0.386,3.235-0.637c1.052-0.243,2.009-0.495,2.87-0.745v0.366
	c0.018,0.372,0.184,0.684,0.504,0.922c0.322,0.244,0.704,0.373,1.166,0.38c0.53-0.007,0.956-0.136,1.278-0.38
	c0.321-0.238,0.487-0.55,0.495-0.922v-18.303c-0.008-0.354-0.174-0.651-0.479-0.889c-0.313-0.237-0.713-0.366-1.191-0.373
	c-0.504,0.007-0.93,0.136-1.26,0.373s-0.505,0.535-0.514,0.889V120.137z"/>
<path fill="#C7161E" d="M199.856,18.518v-5.233c-0.017-0.844-0.351-1.535-0.97-2.106c-0.633-0.557-1.403-0.857-2.338-0.872h-0.199
	c-0.887,0.015-1.623,0.315-2.24,0.872c-0.618,0.571-0.936,1.262-0.969,2.106v5.233h-13.334c-0.918,0.015-1.705,0.315-2.322,0.872
	c-0.635,0.571-0.952,1.264-0.985,2.106v0.181c0.033,0.828,0.35,1.533,0.985,2.09c0.618,0.571,1.404,0.856,2.322,0.889h2.906v12.902
	c0,8.5-0.498,16.967-1.52,25.389c-1.035,8.422-2.588,16.693-4.694,24.785c-0.185,0.827-0.052,1.58,0.417,2.243
	c0.452,0.66,1.12,1.127,1.989,1.368h0.198c0.586,0.148,1.138,0.148,1.689,0c0.535-0.151,1.002-0.407,1.404-0.782
	c0.4-0.378,0.668-0.842,0.816-1.384c1.99-7.146,3.494-14.471,4.528-21.959c1.021-7.476,1.655-15.025,1.89-22.621h11.627
	c0.553,0,1.072,0.089,1.537,0.27c0.47,0.181,0.869,0.452,1.17,0.813c0.351,0.315,0.619,0.692,0.82,1.127
	c0.184,0.437,0.283,0.904,0.283,1.398v33.751c0,0.497-0.1,0.964-0.283,1.398c-0.201,0.437-0.47,0.813-0.82,1.128
	c-0.301,0.315-0.7,0.556-1.17,0.738c-0.465,0.166-0.984,0.256-1.537,0.256h-3.205c-0.637,0.015-1.203,0.15-1.705,0.436
	c-0.502,0.271-0.887,0.631-1.17,1.083c-0.284,0.45-0.434,0.933-0.434,1.458v0.183c0.016,0.826,0.334,1.532,0.936,2.089
	c0.617,0.57,1.402,0.858,2.373,0.889h3.205c1.472-0.015,2.843-0.256,4.111-0.768c1.254-0.496,2.373-1.189,3.342-2.076
	c0.969-0.901,1.771-1.925,2.373-3.112c0.25-0.588,0.451-1.189,0.584-1.821c0.149-0.615,0.219-1.249,0.219-1.88V48.206
	c0-0.675-0.069-1.307-0.219-1.925c-0.133-0.6-0.334-1.187-0.584-1.773c-0.918-1.836-2.24-3.279-3.927-4.332
	c-1.704-1.068-3.675-1.609-5.899-1.624h-11.527v-0.994V24.656h21.754c0.919-0.033,1.688-0.318,2.29-0.889
	c0.585-0.557,0.901-1.262,0.918-2.09v-0.181c-0.017-0.842-0.333-1.535-0.918-2.106c-0.603-0.557-1.371-0.857-2.29-0.872H199.856z
	 M228.828,33.86c0.234-0.782,0.168-1.52-0.215-2.183c-0.402-0.66-1.021-1.142-1.891-1.428l-0.301-0.089
	c-0.918-0.256-1.769-0.197-2.555,0.164c-0.77,0.377-1.318,0.948-1.654,1.731l-2.507,7.128c-0.198,0.452-0.251,0.918-0.166,1.369
	c0.067,0.466,0.269,0.871,0.569,1.249c0.35,0.449,0.75,0.767,1.199,0.961c0.453,0.211,0.955,0.3,1.504,0.3h14.037v8.303
	c0,1.039-0.033,2.047-0.084,3.038c-0.065,0.994-0.168,1.972-0.317,2.918H220.51c-0.92,0.015-1.705,0.301-2.324,0.842
	c-0.635,0.557-0.951,1.265-0.985,2.136v0.09c0.034,0.875,0.351,1.58,0.985,2.137c0.619,0.541,1.404,0.826,2.324,0.842h14.436
	c-0.402,1.174-0.854,2.332-1.372,3.46c-0.499,1.143-1.084,2.272-1.737,3.399c-1.67,2.827-3.676,5.444-5.996,7.867
	c-2.34,2.421-4.914,4.735-7.736,6.932c-0.469,0.347-0.803,0.752-1.002,1.234c-0.186,0.481-0.235,0.976-0.135,1.473
	c0.082,0.497,0.334,0.949,0.736,1.353l0.199,0.271c0.3,0.315,0.65,0.556,1.037,0.738c0.4,0.181,0.816,0.3,1.269,0.345
	c0.45,0.045,0.902,0,1.319-0.119c0.419-0.137,0.785-0.331,1.087-0.601c1.554-1.221,3.007-2.423,4.36-3.611s2.606-2.39,3.761-3.61
	c2.505-2.555,4.61-5.173,6.348-7.836c1.722-2.662,3.074-5.443,4.076-8.316l18.246,23.281c0.351,0.422,0.787,0.738,1.303,0.949
	c0.535,0.211,1.087,0.3,1.673,0.271c0.584-0.03,1.119-0.196,1.635-0.496c0.535-0.316,0.92-0.708,1.17-1.173
	c0.236-0.481,0.334-0.979,0.269-1.506c-0.05-0.525-0.269-1.008-0.635-1.472l-17.945-22.833h16.644
	c0.968-0.016,1.754-0.301,2.371-0.842c0.603-0.557,0.92-1.262,0.937-2.137v-0.09c-0.017-0.871-0.334-1.579-0.937-2.136
	c-0.617-0.541-1.403-0.827-2.371-0.842h-20.151c0.199-1.895,0.301-3.879,0.301-5.956v-8.303h18.244
	c0.937-0.029,1.705-0.315,2.34-0.886c0.618-0.556,0.952-1.263,0.97-2.092v-0.178c0-0.527-0.166-1.009-0.451-1.461
	c-0.301-0.449-0.701-0.812-1.202-1.083c-0.486-0.285-1.054-0.419-1.656-0.434h-33.985L228.828,33.86z M227.625,15.089
	c0.201-0.497,0.235-0.977,0.118-1.473c-0.118-0.497-0.351-0.949-0.735-1.354c-0.385-0.392-0.887-0.678-1.488-0.872l-0.198-0.092
	c-0.87-0.211-1.705-0.149-2.474,0.196c-0.785,0.361-1.354,0.917-1.737,1.699l-2.505,7.039c-0.201,0.452-0.268,0.919-0.219,1.398
	c0.051,0.483,0.219,0.949,0.519,1.401c0.351,0.36,0.769,0.631,1.253,0.812c0.482,0.179,1.002,0.271,1.555,0.271h41.504
	c0.936-0.017,1.703-0.303,2.338-0.844c0.619-0.525,0.953-1.217,0.97-2.045v-0.181c-0.017-0.841-0.351-1.532-0.97-2.106
	c-0.635-0.556-1.402-0.857-2.338-0.872h-36.692L227.625,15.089z M297.5,68.24v17.597h-13.032c-0.919,0.016-1.704,0.315-2.322,0.874
	c-0.636,0.571-0.952,1.263-0.986,2.104v0.092c0.034,0.827,0.351,1.532,0.986,2.089c0.618,0.571,1.403,0.859,2.322,0.89h25.264
	c1.504,0,2.908-0.271,4.211-0.813c1.253-0.496,2.355-1.174,3.292-2.016c0.918-0.857,1.669-1.865,2.221-3.038
	c0.602-1.172,0.902-2.438,0.902-3.79V79.25c-0.017-0.872-0.351-1.58-0.968-2.136c-0.636-0.541-1.405-0.827-2.341-0.842h-0.198
	c-0.923,0.015-1.705,0.301-2.323,0.842c-0.635,0.556-0.952,1.264-0.985,2.136v2.979c0,0.541-0.102,1.038-0.284,1.473
	c-0.201,0.452-0.47,0.827-0.819,1.146c-0.351,0.315-0.753,0.556-1.203,0.734c-0.452,0.166-0.952,0.256-1.504,0.256h-5.615V68.24
	h4.713c0.751,0,1.471-0.075,2.171-0.209c0.686-0.137,1.339-0.332,1.94-0.604c1.336-0.526,2.506-1.217,3.491-2.088
	c0.984-0.875,1.754-1.881,2.306-3.009c0.535-1.145,0.819-2.347,0.819-3.656V31.423c0-0.677-0.052-1.338-0.167-1.971
	c-0.134-0.631-0.334-1.232-0.636-1.818c-0.585-1.175-1.371-2.199-2.373-3.07c-1.002-0.857-2.154-1.518-3.44-1.985
	c-1.288-0.481-2.657-0.722-4.111-0.722h-4.713v-8.393c-0.016-0.842-0.334-1.532-0.935-2.106c-0.618-0.556-1.404-0.857-2.373-0.872
	c-0.969,0.015-1.754,0.316-2.373,0.872c-0.602,0.574-0.919,1.264-0.936,2.106v8.393h-4.711c-2.239,0.014-4.21,0.541-5.932,1.564
	c-1.722,1.024-3.008,2.437-3.894,4.213c-0.301,0.586-0.502,1.187-0.617,1.818c-0.136,0.633-0.186,1.294-0.186,1.971v27.252
	c0.017,1.76,0.502,3.37,1.438,4.814c0.935,1.427,2.205,2.569,3.81,3.429c1.587,0.857,3.392,1.308,5.38,1.322H297.5z M335.094,26.911
	c0.119-0.872-0.1-1.609-0.668-2.196c-0.567-0.601-1.302-0.948-2.239-1.053l-0.199-0.089c-0.585-0.062-1.12,0.029-1.655,0.238
	c-0.517,0.211-0.952,0.527-1.303,0.934c-0.367,0.42-0.568,0.902-0.651,1.443l-3.308,25.629c-0.05,0.45,0,0.872,0.148,1.28
	c0.152,0.389,0.402,0.75,0.754,1.065c0.301,0.318,0.65,0.557,1.052,0.738c0.401,0.166,0.852,0.255,1.354,0.255h30.876
	c0.853,0,1.605,0.137,2.29,0.393c0.668,0.27,1.27,0.646,1.821,1.142c0.552,0.497,0.969,1.054,1.27,1.684
	c0.284,0.617,0.436,1.294,0.436,2.014v20.305c0,0.767-0.151,1.446-0.436,2.047c-0.301,0.615-0.718,1.157-1.27,1.653
	c-0.552,0.498-1.153,0.873-1.821,1.144c-0.685,0.255-1.438,0.393-2.29,0.393h-22.153c-0.919,0.014-1.705,0.3-2.323,0.841
	c-0.635,0.557-0.952,1.263-0.985,2.137v0.089c0.033,0.827,0.351,1.535,0.985,2.091c0.618,0.571,1.404,0.857,2.323,0.888h22.153
	c0.853,0,1.705-0.075,2.541-0.211c0.819-0.149,1.62-0.375,2.373-0.691c1.554-0.588,2.905-1.4,4.026-2.406
	c1.12-1.009,1.989-2.195,2.59-3.549c0.351-0.724,0.619-1.446,0.817-2.182c0.185-0.723,0.283-1.476,0.283-2.242V60.389
	c0-0.812-0.099-1.563-0.283-2.285c-0.198-0.707-0.467-1.428-0.817-2.135c-0.601-1.354-1.47-2.541-2.59-3.564
	c-1.121-1.024-2.473-1.851-4.026-2.482c-0.753-0.271-1.554-0.482-2.373-0.616c-0.836-0.136-1.688-0.196-2.541-0.196h-26.767
	L335.094,26.911z M327.175,11.39h28.371c0.901,0,1.754,0.044,2.574,0.164c0.8,0.121,1.586,0.331,2.337,0.649
	c1.557,0.585,2.908,1.397,4.045,2.403c1.12,1.024,2.022,2.243,2.674,3.641c0.301,0.676,0.552,1.369,0.733,2.092
	c0.169,0.72,0.268,1.473,0.268,2.24v20.665c-0.017,0.827-0.351,1.535-0.968,2.091c-0.635,0.571-1.403,0.857-2.34,0.887h-0.202
	c-0.918-0.03-1.702-0.316-2.319-0.887c-0.636-0.556-0.955-1.264-0.988-2.091V22.579c0-0.678-0.132-1.323-0.384-1.939
	c-0.268-0.619-0.668-1.175-1.22-1.67c-0.601-0.541-1.235-0.949-1.92-1.219c-0.687-0.271-1.438-0.405-2.29-0.405h-28.371
	c-0.919-0.015-1.704-0.303-2.322-0.845c-0.636-0.555-0.952-1.261-0.985-2.133v-0.092c0.033-0.827,0.35-1.518,0.985-2.059
	C325.471,11.69,326.256,11.405,327.175,11.39 M304.116,62.194v-34.2h4.713c0.602,0,1.137,0.074,1.604,0.226
	c0.469,0.149,0.901,0.404,1.305,0.767c0.351,0.316,0.618,0.676,0.817,1.083c0.185,0.405,0.284,0.857,0.284,1.353v27.252
	c0,0.497-0.1,0.964-0.284,1.399c-0.199,0.436-0.467,0.813-0.817,1.127c-0.403,0.316-0.836,0.557-1.305,0.737
	c-0.467,0.167-1.002,0.256-1.604,0.256H304.116z M288.88,31.423c0.017-1.008,0.384-1.835,1.084-2.468
	c0.721-0.616,1.656-0.947,2.825-0.961h4.711v34.2h-4.711c-1.169-0.03-2.104-0.36-2.825-1.022c-0.7-0.646-1.067-1.489-1.084-2.497
	V31.423z M323.867,68.062h31.077c0.885,0.015,1.62,0.314,2.24,0.872c0.617,0.57,0.936,1.264,0.969,2.105v0.18
	c-0.033,0.826-0.352,1.533-0.969,2.091c-0.62,0.57-1.355,0.855-2.24,0.887h-31.077c-0.919-0.031-1.706-0.316-2.323-0.887
	c-0.635-0.558-0.952-1.265-0.985-2.091v-0.18c0.033-0.842,0.351-1.535,0.985-2.105C322.161,68.376,322.948,68.076,323.867,68.062"/>
<rect x="176.166" y="10.308" fill="none" width="195.72" height="114.385"/>
<g>
	<defs>
		<rect id="SVGID_1_" x="14.5" y="1.246" width="150.094" height="132.509"/>
	</defs>
	<clipPath id="SVGID_2_">
		<use xlink:href="#SVGID_1_"  overflow="visible"/>
	</clipPath>
	<path clip-path="url(#SVGID_2_)" fill-rule="evenodd" clip-rule="evenodd" fill="#C7161E" d="M89.548,18.659
		c6.527,0,12.801,1.089,18.65,3.093v-3.218c0-7.795,6.377-14.172,14.172-14.172h26.188c1.678-1.91,4.138-3.116,6.88-3.116
		c5.057,0,9.157,4.1,9.157,9.157c0,5.057-4.101,9.157-9.157,9.157c-2.742,0-5.202-1.206-6.88-3.116h-1.914h-5.429h-15.855
		c-2.927,0-5.321,2.394-5.321,5.322v5.632c16.248,10.172,27.059,28.23,27.059,48.809c0,31.779-25.771,57.549-57.549,57.549
		c-31.778,0-57.549-25.77-57.549-57.549c0-20.579,10.81-38.636,27.058-48.809v-5.632c0-2.928-2.394-5.322-5.321-5.322H37.879H32.45
		h-1.913c-1.678,1.91-4.138,3.116-6.88,3.116c-5.057,0-9.157-4.1-9.157-9.157c0-5.057,4.1-9.157,9.157-9.157
		c2.742,0,5.202,1.206,6.88,3.116h26.187c7.795,0,14.172,6.377,14.172,14.172v3.218C76.747,19.748,83.02,18.659,89.548,18.659
		 M124.402,78.89H113.41c-1.444,11.965-11.635,21.238-23.989,21.238c-12.352,0-22.543-9.273-23.987-21.238H54.442
		c1.487,18.016,16.582,32.178,34.979,32.178C107.82,111.067,122.915,96.905,124.402,78.89 M89.548,29.67
		c-25.697,0-46.538,20.839-46.538,46.536c0,25.697,20.84,46.537,46.538,46.537c25.696,0,46.535-20.84,46.535-46.537
		C136.083,50.509,115.244,29.67,89.548,29.67"/>
</g>
</svg>
